<?xml version="1.0" standalone="no"?>
<!DOCTYPE svg PUBLIC "-//W3C//DTD SVG 20010904//EN"
 "http://www.w3.org/TR/2001/REC-SVG-20010904/DTD/svg10.dtd">
<svg version="1.0" xmlns="http://www.w3.org/2000/svg"
 width="260.000000pt" height="260.000000pt" viewBox="0 0 260.000000 260.000000"
 preserveAspectRatio="xMidYMid meet">
<metadata>
Created by potrace 1.11, written by Peter Selinger 2001-2013
</metadata>
<g transform="translate(0.000000,260.000000) scale(0.100000,-0.100000)"
fill="#000000" stroke="none">
<path d="M607 2308 c-30 -51 -174 -301 -321 -556 l-266 -462 319 -553 318
-552 643 0 643 0 318 553 319 552 -319 553 -318 552 -641 3 -641 2 -54 -92z
m1063 -348 c118 -16 196 -46 246 -95 52 -53 63 -96 51 -215 -13 -146 15 -130
-227 -130 l-209 0 -20 29 c-19 26 -20 36 -13 91 8 53 7 62 -9 70 -28 16 -255
13 -271 -3 -8 -9 -30 -156 -63 -421 -42 -352 -47 -408 -35 -416 23 -15 231
-12 260 3 20 10 27 23 34 70 l9 57 211 0 211 -1 19 -25 c37 -52 -1 -194 -67
-250 -88 -74 -205 -102 -467 -110 -341 -11 -532 18 -621 94 -48 41 -69 84 -69
143 0 60 99 879 110 912 35 104 152 173 331 196 91 12 499 12 589 1z"/>
</g>
</svg>
