<?xml version="1.0" standalone="no"?>
<!DOCTYPE svg PUBLIC "-//W3C//DTD SVG 20010904//EN"
 "http://www.w3.org/TR/2001/REC-SVG-20010904/DTD/svg10.dtd">
<svg version="1.0" xmlns="http://www.w3.org/2000/svg"
 width="260.000000pt" height="260.000000pt" viewBox="0 0 260.000000 260.000000"
 preserveAspectRatio="xMidYMid meet">
<metadata>
Created by potrace 1.11, written by Peter Selinger 2001-2013
</metadata>
<g transform="translate(0.000000,260.000000) scale(0.100000,-0.100000)"
fill="#000000" stroke="none">
<path d="M690 2470 c0 -5 -7 -10 -15 -10 -9 0 -19 -8 -22 -17 -4 -10 -16 -34
-28 -53 -12 -19 -39 -66 -60 -105 -21 -38 -43 -79 -49 -90 -6 -11 -17 -27 -24
-36 -7 -9 -33 -56 -58 -105 -25 -49 -51 -96 -58 -104 -7 -8 -23 -37 -36 -65
-14 -27 -35 -68 -49 -90 -14 -22 -43 -76 -66 -120 -23 -44 -54 -98 -69 -119
-15 -22 -42 -72 -61 -110 -19 -39 -44 -84 -54 -101 -20 -31 -27 -71 -13 -77 4
-1 18 -23 31 -48 25 -48 87 -162 105 -195 6 -11 23 -38 37 -60 14 -22 40 -70
57 -107 18 -37 37 -70 42 -73 5 -3 21 -31 36 -63 15 -31 39 -74 52 -95 13 -21
42 -75 66 -120 23 -45 53 -100 68 -122 14 -22 38 -65 53 -95 15 -30 44 -81 64
-112 l36 -58 625 0 625 0 36 58 c20 31 51 85 68 119 17 34 35 63 39 65 4 2 25
39 46 83 22 44 50 93 63 108 13 16 23 36 23 44 0 9 14 38 30 65 17 26 30 52
30 56 0 5 14 21 30 37 17 16 30 37 30 47 0 29 29 78 61 105 16 14 29 31 29 40
0 8 7 21 15 29 8 8 12 21 9 28 -3 7 4 29 15 47 12 19 25 43 30 54 5 11 21 31
35 44 14 14 26 34 26 46 0 25 22 75 33 75 10 0 9 36 -2 58 -5 9 -14 35 -21 57
-7 22 -27 56 -45 75 -47 51 -78 108 -72 131 4 14 -4 28 -25 47 -17 15 -46 59
-64 99 -19 39 -38 74 -44 78 -5 3 -23 33 -39 66 -16 33 -33 65 -39 72 -5 6
-31 53 -57 102 -26 50 -51 96 -57 103 -14 16 -52 85 -78 139 -11 24 -32 60
-46 80 -14 21 -30 48 -35 61 -5 12 -15 22 -24 22 -8 0 -15 5 -15 10 0 7 -210
10 -610 10 -400 0 -610 -3 -610 -10z m1174 -368 c146 -40 223 -101 247 -193
10 -37 10 -73 -1 -178 l-12 -131 -258 0 -257 0 -22 24 c-21 23 -22 27 -11 106
16 116 18 114 -169 118 -116 3 -155 0 -184 -12 -20 -8 -37 -21 -37 -28 0 -7
-29 -242 -63 -521 -55 -442 -61 -509 -49 -520 11 -8 66 -12 183 -12 197 0 195
-1 213 97 l11 63 256 3 255 2 22 -23 c22 -23 22 -27 11 -98 -25 -165 -112
-250 -307 -300 -108 -28 -367 -43 -610 -35 -324 10 -448 40 -537 130 -86 86
-86 60 -10 694 36 301 69 563 75 583 25 91 112 171 227 210 133 44 186 48 578
45 345 -2 375 -4 449 -24z"/>
</g>
</svg>
